<svg width="109" height="31" viewBox="0 0 109 31" fill="none" xmlns="http://www.w3.org/2000/svg">
<g id="liftlogic">
<path d="M4.38355 1.11397V24.1586H0V1.11397H4.38355Z" fill="#4600DE"/>
<path d="M7.52723 24.1586V6.87514H11.9108V24.1586H7.52723ZM9.73112 4.42214C9.03685 4.42214 8.43946 4.20835 7.93895 3.78076C7.43843 3.34567 7.18817 2.82432 7.18817 2.2167C7.18817 1.60157 7.43843 1.08022 7.93895 0.652631C8.43946 0.217544 9.03685 0 9.73112 0C10.4335 0 11.0308 0.217544 11.5233 0.652631C12.0238 1.08022 12.2741 1.60157 12.2741 2.2167C12.2741 2.82432 12.0238 3.34567 11.5233 3.78076C11.0308 4.20835 10.4335 4.42214 9.73112 4.42214Z" fill="#4600DE"/>
<path d="M24.4755 6.87514V10.0258H13.4803V6.87514H24.4755ZM16.2291 24.1586V5.24356C16.2291 4.08082 16.4874 3.11313 17.0041 2.34047C17.5288 1.56782 18.2311 0.9902 19.1111 0.607622C19.991 0.225045 20.9678 0.0337559 22.0415 0.0337559C22.8004 0.0337559 23.4744 0.0900177 24.0638 0.202541C24.6531 0.315064 25.089 0.416334 25.3716 0.506352L24.4997 3.65699C24.314 3.60448 24.0799 3.55197 23.7973 3.49945C23.5148 3.43944 23.2 3.40944 22.8528 3.40944C22.0375 3.40944 21.4603 3.59322 21.1212 3.9608C20.7902 4.32087 20.6247 4.83848 20.6247 5.51361V24.1586H16.2291Z" fill="#4600DE"/>
<path d="M35.8323 6.87514V10.0258H25.1398V6.87514H35.8323ZM27.7796 2.7343H32.1632V18.9601C32.1632 19.5077 32.252 19.9278 32.4296 20.2203C32.6152 20.5054 32.8574 20.7004 33.1561 20.8054C33.4548 20.9105 33.7858 20.963 34.1491 20.963C34.4235 20.963 34.6738 20.9442 34.8998 20.9067C35.134 20.8692 35.3116 20.8354 35.4326 20.8054L36.1713 23.9898C35.9372 24.0648 35.6022 24.1474 35.1662 24.2374C34.7384 24.3274 34.2136 24.3799 33.592 24.3949C32.4941 24.4249 31.5052 24.2711 30.6253 23.9336C29.7453 23.5885 29.047 23.0559 28.5304 22.3358C28.0218 21.6156 27.7715 20.7154 27.7796 19.6352V2.7343Z" fill="#4600DE"/>
<path d="M42.9175 1.11397V24.1586H38.5339V1.11397H42.9175Z" fill="#4600DE"/>
<path d="M54.1744 24.4962C52.358 24.4962 50.7838 24.1249 49.4518 23.3822C48.1198 22.6396 47.0864 21.6006 46.3518 20.2653C45.6253 18.9301 45.262 17.3698 45.262 15.5844C45.262 13.799 45.6253 12.235 46.3518 10.8922C47.0864 9.54942 48.1198 8.50671 49.4518 7.76407C50.7838 7.02142 52.358 6.65009 54.1744 6.65009C55.9908 6.65009 57.565 7.02142 58.897 7.76407C60.229 8.50671 61.2583 9.54942 61.9849 10.8922C62.7195 12.235 63.0868 13.799 63.0868 15.5844C63.0868 17.3698 62.7195 18.9301 61.9849 20.2653C61.2583 21.6006 60.229 22.6396 58.897 23.3822C57.565 24.1249 55.9908 24.4962 54.1744 24.4962ZM54.1986 21.233C55.1835 21.233 56.0069 20.9817 56.6689 20.4791C57.3309 19.969 57.8233 19.2864 58.1462 18.4312C58.4772 17.576 58.6427 16.6234 58.6427 15.5731C58.6427 14.5154 58.4772 13.559 58.1462 12.7038C57.8233 11.8411 57.3309 11.1547 56.6689 10.6446C56.0069 10.1345 55.1835 9.87949 54.1986 9.87949C53.1895 9.87949 52.3499 10.1345 51.6799 10.6446C51.0179 11.1547 50.5214 11.8411 50.1904 12.7038C49.8675 13.559 49.7061 14.5154 49.7061 15.5731C49.7061 16.6234 49.8675 17.576 50.1904 18.4312C50.5214 19.2864 51.0179 19.969 51.6799 20.4791C52.3499 20.9817 53.1895 21.233 54.1986 21.233Z" fill="#4600DE"/>
<path d="M73.5324 31C71.9582 31 70.606 30.8012 69.4758 30.4036C68.3456 30.0135 67.4374 29.4884 66.7512 28.8283C66.065 28.1682 65.5887 27.4368 65.3223 26.6341L69.2699 25.7452C69.4475 26.0828 69.7058 26.4166 70.0449 26.7466C70.384 27.0842 70.8401 27.3618 71.4132 27.5793C71.9945 27.8044 72.7251 27.9169 73.605 27.9169C74.8482 27.9169 75.8775 27.6356 76.6929 27.073C77.5082 26.5178 77.9159 25.6027 77.9159 24.3274V21.053H77.6979C77.4719 21.4731 77.1409 21.9044 76.705 22.347C76.2771 22.7896 75.708 23.1609 74.9976 23.461C74.2952 23.761 73.4113 23.9111 72.3457 23.9111C70.9168 23.9111 69.6211 23.5998 68.4586 22.9771C67.3042 22.347 66.3839 21.4093 65.6977 20.1641C65.0196 18.9113 64.6805 17.3435 64.6805 15.4606C64.6805 13.5627 65.0196 11.9612 65.6977 10.6559C66.3839 9.34313 67.3082 8.34918 68.4707 7.67405C69.6332 6.99141 70.9289 6.65009 72.3578 6.65009C73.4476 6.65009 74.3437 6.82263 75.046 7.16769C75.7564 7.50526 76.3215 7.91409 76.7413 8.39419C77.1611 8.86679 77.48 9.31313 77.6979 9.73321H77.9401V6.87514H82.2631V24.4399C82.2631 25.9177 81.8837 27.1405 81.1249 28.1082C80.366 29.0759 79.3287 29.7998 78.0128 30.2799C76.6969 30.7599 75.2034 31 73.5324 31ZM73.5687 20.7154C74.4971 20.7154 75.2882 20.5054 75.9421 20.0853C76.596 19.6652 77.0925 19.0613 77.4315 18.2737C77.7706 17.486 77.9401 16.5408 77.9401 15.4381C77.9401 14.3504 77.7706 13.3977 77.4315 12.58C77.1006 11.7624 76.6081 11.1285 75.9542 10.6784C75.3084 10.2208 74.5132 9.99201 73.5687 9.99201C72.5919 9.99201 71.7765 10.2283 71.1226 10.7009C70.4687 11.1735 69.9763 11.8224 69.6453 12.6475C69.3143 13.4652 69.1488 14.3954 69.1488 15.4381C69.1488 16.4958 69.3143 17.4223 69.6453 18.2174C69.9844 19.0051 70.4808 19.6202 71.1347 20.0628C71.7967 20.4979 72.608 20.7154 73.5687 20.7154Z" fill="#4600DE"/>
<path d="M85.3917 24.1586V6.87514H89.7752V24.1586H85.3917ZM87.5956 4.42214C86.9013 4.42214 86.3039 4.20835 85.8034 3.78076C85.3029 3.34567 85.0526 2.82432 85.0526 2.2167C85.0526 1.60157 85.3029 1.08022 85.8034 0.652631C86.3039 0.217544 86.9013 0 87.5956 0C88.2979 0 88.8953 0.217544 89.3877 0.652631C89.8882 1.08022 90.1385 1.60157 90.1385 2.2167C90.1385 2.82432 89.8882 3.34567 89.3877 3.78076C88.8953 4.20835 88.2979 4.42214 87.5956 4.42214Z" fill="#4600DE"/>
<path d="M101.032 24.4962C99.1754 24.4962 97.581 24.1174 96.249 23.3597C94.925 22.6021 93.9038 21.5556 93.1853 20.2203C92.4749 18.8776 92.1197 17.3322 92.1197 15.5844C92.1197 13.829 92.483 12.28 93.2095 10.9372C93.9361 9.58693 94.9613 8.53672 96.2853 7.78657C97.6173 7.02892 99.1915 6.65009 101.008 6.65009C102.518 6.65009 103.854 6.90889 105.016 7.4265C106.187 7.9366 107.119 8.6605 107.813 9.59818C108.508 10.5284 108.903 11.6161 109 12.8613H104.81C104.641 12.0287 104.237 11.3348 103.599 10.7797C102.97 10.2171 102.126 9.93575 101.068 9.93575C100.172 9.93575 99.3852 10.1608 98.7071 10.6109C98.029 11.0535 97.5002 11.6911 97.1208 12.5238C96.7495 13.3564 96.5638 14.3541 96.5638 15.5169C96.5638 16.6946 96.7495 17.7073 97.1208 18.555C97.4922 19.3952 98.0129 20.044 98.6829 20.5016C99.361 20.9517 100.156 21.1768 101.068 21.1768C101.714 21.1768 102.291 21.0642 102.8 20.8392C103.317 20.6067 103.749 20.2728 104.096 19.8377C104.443 19.4027 104.681 18.8738 104.81 18.2512H109C108.895 19.4739 108.508 20.5579 107.838 21.5031C107.167 22.4408 106.255 23.1759 105.101 23.7085C103.946 24.2336 102.59 24.4962 101.032 24.4962Z" fill="#4600DE"/>
</g>
</svg>
