<svg width="6" height="10" viewBox="0 0 6 10" fill="none" xmlns="http://www.w3.org/2000/svg">
<path fill-rule="evenodd" clip-rule="evenodd" d="M6 5C5.99995 5.24108 5.90267 5.47226 5.72957 5.6427L1.57617 9.73346C1.4031 9.90404 1.16833 9.99991 0.923491 10C0.678652 10.0001 0.443807 9.90437 0.270619 9.73392C0.0974307 9.56346 8.67844e-05 9.33222 0 9.09108C-8.63075e-05 8.84993 0.0970917 8.61863 0.270157 8.44806L3.77193 5L0.271081 1.55195C0.0980153 1.38137 0.000836372 1.15007 0.000923157 0.90892C0.00100946 0.667775 0.0983543 0.436539 0.271543 0.266084C0.44473 0.095628 0.679575 -8.51838e-05 0.924414 5.68867e-08C1.16925 8.52976e-05 1.40403 0.0959622 1.57709 0.266538L5.73049 4.3573C5.90326 4.52789 6.00019 4.75905 6 5Z" fill="#4600DE"/>
</svg>
